<svg xmlns="http://www.w3.org/2000/svg" width="500" height="333.05" viewBox="0 0 500 333.05"><path d="M604.92,563.07c-3.28.92-20.46,4.21-34.53,6.22s-36.55,1.46-43.67.73-29.61-5.3-44.41-7.49-22.47,6.39-25.94,11.87-3.84,23.39,2.92,33.81,18.27,18.64,36.18,25.76,53.13,5.87,53.13,5.87c16.21-.52,44.26-4.4,62-11.53s27.59-23.39,32-32.71,4.57-26.86-2.56-33.07S608.21,562.16,604.92,563.07Z" transform="translate(-250 -333.48)"/><path d="M287.55,376.56c-12.14,3.85-22.22,7-27.21,8.31-1.91,5.17-2.74,27.3-.23,41.08,2.59,14.23,21.08,33.82,28.64,34.9,4,.56,14.24-2.13,25-5.86-7.36-7.53-19.56-22.07-22.61-38.34C287.79,399,287.24,384.86,287.55,376.56Z" transform="translate(-250 -333.48)" fill="#fff"/><path d="M411.69,418.21c-18.26,10.85-28,35.23-29.23,38.46,1.29,1.41,2.41,2.57,3.26,3.44a452.06,452.06,0,0,1,50.83-29.77c5.07-2.51,10.55-5,16.3-7.58-2.29-3.32-5.46-8-9.14-13.36C435.83,407.59,427.81,408.62,411.69,418.21Z" transform="translate(-250 -333.48)" fill="#fff"/><path d="M377.7,387.75c14.62-12.49,28.12-18.11,40.25-16.8-8.69-13.26-15.9-24.73-17.75-28.93-2.74-.65-10.14,1.36-17.84,3.88-7.59,8.07-13.27,19.73-18.55,37.86-2.34,8.06-2.52,17.91-1.86,27A52.65,52.65,0,0,1,377.7,387.75Z" transform="translate(-250 -333.48)" fill="#fff"/><path d="M336.43,361.22c-11.91,3.59-26.41,8.2-39.68,12.42l-2.25.71c-.49,7-.28,21.91,3.31,41,3,16.1,16.81,31,23,37,8.09-3.11,15.68-6.54,20.18-9.31,2-1.22,3.89-2.27,5.58-3.2,3.11-1.7,5.79-3.17,7.06-4.68a8.49,8.49,0,0,1,5.6-3l0-.32C354,424.73,337.64,399.41,336.43,361.22Z" transform="translate(-250 -333.48)" fill="#d0411a"/><path d="M419.9,448.86c6.5,33.68,18.05,49.42,41,71.3C491,548.9,527,558.92,570.79,550.8c32.35-6,53.47-32.25,65.48-53.2,11.57-20.17,13.64-53,10.57-76.52C644.48,403,636.79,387.2,633,380.33c-9.57,1-18.86,2.12-27.1,3.42-38.09,6-118.71,31-165.56,54.23C433.24,441.51,426.4,445.17,419.9,448.86Zm66-13c2.48-9.33,10.36-23.63,24.8-19.83s28.44,23.59,30.19,25.67c2.34,2.77,0,3.94-1.75,6.71s-15,21.44-11.52,23.19l23.92,7.15s4.67-.44,5,7.44,1.9,25.09-6,32.67-17.21,9.63-24.94,5.25-26.26-23.19-32.39-38.36S483.44,445.17,485.92,435.83Z" transform="translate(-250 -333.48)" fill="#fff"/><path d="M663.48,470.44c-1.58-1.09-9.4-10.54-10.92-13.08A137.05,137.05,0,0,1,649,478.8a39.13,39.13,0,0,1,14.64-8.29Z" transform="translate(-250 -333.48)" fill="#fff"/><path d="M647.11,501.79c4,4.67,12.77,7.26,22.83,6.77,10.74-.52,21.51-7.12,22.35-7.64,6-4.36,11.22-11.7,7.71-19.26-2.69-5.82-12.58-7.83-21.71-7.83A55.27,55.27,0,0,0,666.82,475c-9.08,2-19.78,9.57-21.73,19.5A8.3,8.3,0,0,0,647.11,501.79Z" transform="translate(-250 -333.48)" fill="#d93b1a"/><path d="M365.69,351.81c-6.51,2.4-12.14,4.48-16.16,5.59-2.4.67-5.09,1.44-8,2.3a129.92,129.92,0,0,0,16.19,60.23c-1.5-11.51-2.19-26,1.18-37.6,4.24-14.58,8.8-25.21,14.39-33.3C370.45,350.05,367.82,351,365.69,351.81Z" transform="translate(-250 -333.48)" fill="#fff"/><path d="M638.55,379.78a133.91,133.91,0,0,1,7.24,16.29c1.32-2,4.51-5.73,6.54-6.84,2.23-1.21,6.39-3,10.14-1.31s8.62,3.44,12.17,7.7,7.19,8.72,9.22,12.88,2.43,3.85,1,5.77S673.42,428,673.42,428s-3.14,3.24.4,5.37l15.62,6.09s5.27,1,5.27,5.67-2.44,22.1-5.78,23.72a8.43,8.43,0,0,1-1.6.55c7.55,1.18,14.53,4.12,17.32,10.14,3.38,7.32,1.18,15.68-5.53,22.31,36.93-3.78,41.61-39.65,41.8-41.26l.11,0c-3.23-40.19-24.23-76.74-29.09-84.74C704.21,375.4,670.58,376.73,638.55,379.78Z" transform="translate(-250 -333.48)" fill="#fff"/><path d="M692.67,507.28v-.66c-4.18,2.29-13.15,6.6-22.48,7.06q-1.37.06-2.7.06c-10.58,0-19.53-3.13-24.25-8.6a14.17,14.17,0,0,1-2.72-4.67c-12.58,21.84-34.69,49-68.8,55.36a160.36,160.36,0,0,1-29.24,2.82c-32.68,0-60.72-11.5-85.14-34.79C434,501.58,422,485.41,415.21,451.56c-33.59,19.61-57,39.3-59.16,43.29-.86,2.16,1,9.8,3.3,15.24l1.3,3.12-.21.15c20.43,62.79,73,102.6,84.94,111l0,0,2.58,1.83c33,23.47,86.48,35.8,133.11,30.69,44.26-4.84,86.38-33.39,111-58.48,9.59-9.75,41.44-46.93,48.69-115.81.21-1.95.34-3.89.44-5.83C735.24,490.09,721.81,507.28,692.67,507.28Zm-50.1,88.32c-4.39,9.32-14.26,25.58-32,32.71s-45.78,11-62,11.53c0,0-35.22,1.26-53.13-5.87s-29.42-15.35-36.18-25.76-6.4-28.32-2.92-33.81,11.14-14.07,25.94-11.87,37.28,6.76,44.41,7.49,29.6,1.28,43.67-.73,31.25-5.3,34.53-6.22,28-6.76,35.09-.54S647,586.28,642.57,595.6Z" transform="translate(-250 -333.48)" fill="#fff"/><path d="M399,613.47c-8.41,0-17.95-3.22-25.52-13.57-9.34-12.77-10.32-28.9-2.79-43.55a200.74,200.74,0,0,1-17.39-37.29c-7.25,6.62-21,21.4-25.43,41.66-5.43,24.75,4.2,58.14,38,76.94,28.36,15.78,60.1-.59,72.09-8.1a245.44,245.44,0,0,1-23.71-19.66A34.46,34.46,0,0,1,399,613.47Z" transform="translate(-250 -333.48)" fill="#fff"/><path d="M409.07,413.81C422.18,406,431,403,439.79,403.63c-5.62-8.28-12-17.7-17.91-26.71-11.72-3.37-25.46,1.57-40.86,14.72a47.13,47.13,0,0,0-16.87,36.18c.18,1,.36,2,.54,2.86l0,0h0c.24,1.24.47,2.34.68,3.29a8.57,8.57,0,0,1,2.26,2.76c2.72,5.32,7.08,11,11,15.6C381.86,444.72,391.76,424.1,409.07,413.81Z" transform="translate(-250 -333.48)" fill="#d0411a"/><path d="M533.17,636.23a43.21,43.21,0,0,1-5.89-.59c-7.88-1.31-25.64-3.7-39.29-10.52-13-6.49-21.56-15.21-23.58-18.93s-7.76-14.89,4.66-21.87,23.11-5,28.54-3.11,25.75,10.4,38.16,22.34,7.6,2,3.88-.62-12.26-10.55.31-10.39a51.78,51.78,0,0,1,26.37,7c5.74,3.26,18,11.94,20.95,16.91s7.44,12.56-.78,14.74C578.49,633.28,567.83,637.31,533.17,636.23Z" transform="translate(-250 -333.48)" fill="#d0411a"/><path d="M434.35,636.13s-22.82-10.63-34.82-23c-2.82-2.89,1.86-2.82,2.31-2.95L413,606.79l9.43,5.77L444,630.81Z" transform="translate(-250 -333.48)" fill="#cccacb"/><path d="M384.8,462.73c-.4,0-2.63-4-2.63-4a59.58,59.58,0,0,1,13.58-15.31c8-6,17.44-13.69,30.51-18.65,11.48-4.36,22.1-8.62,26.16-7.2a4.39,4.39,0,0,1,2.94,5.37l-65.79,37.92Z" transform="translate(-250 -333.48)" fill="#cccacb"/><path d="M366.76,578.1s-10.95-15.72-15.21-25.35-8.92-23.41-8.92-26.76,9.33-9.93,9.33-9.93l5.77.3,17.75,41.36Z" transform="translate(-250 -333.48)" fill="#cccacb"/><path d="M717.23,368.26l-1.47-.45c-6.4-2-74.55,1.74-111.18,7.51-32.7,5.15-96.22,24.06-143.79,44C450,403.83,410.15,344.85,408,338.49a6.91,6.91,0,0,0-3.69-4c-6.61-3.14-20.74,1.67-41.54,9.35-6.07,2.25-11.8,4.36-15.48,5.38-13,3.59-34.31,10.36-53.09,16.33-16.52,5.25-32.13,10.2-37.13,11.4-3,.71-6.17,3-6.91,21.34a146,146,0,0,0,1.58,29.23c2.95,16.19,23.38,40,35.84,41.82a15.12,15.12,0,0,0,2.11.13c13.14,0,45.23-12.56,55.8-19.08,1.78-1.1,3.52-2.05,5.2-3,3.86-2.11,7.19-3.93,9.38-6.71,4.87,9.52,13.94,19.56,18.55,24.37-16.9,11.93-28.7,22.26-30.41,26.55-2.09,5.23.32,13.76,2.12,18.76-6.86,5.72-25.11,22.94-30.73,48.55-6.12,27.84,4.55,65.29,42.15,86.22,35.54,19.79,73.67-3.28,83.85-10.29,29.63,20.07,72.05,31.71,113.49,31.7a211,211,0,0,0,23-1.23c58.5-6.4,103.73-48.29,116.2-61,10.08-10.26,43.56-49.28,51.1-120.91,5.92-56.22-29.74-111.53-31.27-113.86ZM605.91,383.75c8.24-1.3,17.53-2.44,27.1-3.42,3.78,6.87,11.47,22.64,13.83,40.75,3.07,23.55,1,56.35-10.57,76.52-12,20.95-33.13,47.19-65.48,53.2C527,558.92,491,548.9,460.88,520.16c-22.93-21.88-34.48-37.62-41-71.3,6.5-3.69,13.34-7.35,20.45-10.88C487.2,414.74,567.82,389.74,605.91,383.75ZM666.82,475a55.27,55.27,0,0,1,11.47-1.13c9.13,0,19,2,21.71,7.83,3.51,7.56-1.68,14.9-7.71,19.26-.84.52-11.61,7.12-22.35,7.64-10.06.49-18.79-2.1-22.83-6.77a8.3,8.3,0,0,1-2-7.33C647,484.53,657.74,477,666.82,475ZM649,478.8a137.05,137.05,0,0,0,3.57-21.44c1.52,2.54,9.34,12,10.92,13.08l.15.07A39.13,39.13,0,0,0,649,478.8Zm-196.14-56c-5.75,2.53-11.23,5.07-16.3,7.58a452.06,452.06,0,0,0-50.83,29.77c-.85-.87-2-2-3.26-3.44,1.22-3.23,11-27.61,29.23-38.46,16.12-9.59,24.14-10.62,32-8.81C447.39,414.8,450.56,419.44,452.85,422.76Zm-164.1,38.09c-7.56-1.08-26.05-20.67-28.64-34.9-2.51-13.78-1.68-35.91.23-41.08,5-1.31,15.07-4.46,27.21-8.31-.31,8.3.24,22.43,3.55,40.09,3,16.27,15.25,30.81,22.61,38.34C303,458.72,292.71,461.41,288.75,460.85Zm64.87-25.64c-1.27,1.51-3.95,3-7.06,4.68-1.69.93-3.62,2-5.58,3.2-4.5,2.77-12.09,6.2-20.18,9.31-6.18-6-20-20.91-23-37-3.59-19.13-3.8-34-3.31-41l2.25-.71c13.27-4.22,27.77-8.83,39.68-12.42,1.21,38.19,17.53,63.51,22.76,70.69l0,.32A8.49,8.49,0,0,0,353.62,435.21Zm5.28-52.88c-3.37,11.57-2.68,26.09-1.18,37.6a129.92,129.92,0,0,1-16.19-60.23c2.91-.86,5.6-1.63,8-2.3,4-1.11,9.65-3.19,16.16-5.59,2.13-.79,4.76-1.76,7.6-2.78C367.7,357.12,363.14,367.75,358.9,382.33Zm4.91,1.43c5.28-18.13,11-29.79,18.55-37.86,7.7-2.52,15.1-4.53,17.84-3.88,1.85,4.2,9.06,15.67,17.75,28.93-12.13-1.31-25.63,4.31-40.25,16.8a52.65,52.65,0,0,0-15.75,23C361.29,401.67,361.47,391.82,363.81,383.76Zm3.83,53a8.57,8.57,0,0,0-2.26-2.76c-.21-.95-.44-2-.68-3.29h0l0,0c-.18-.89-.36-1.84-.54-2.86A47.13,47.13,0,0,1,381,391.64c15.4-13.15,29.14-18.09,40.86-14.72,6,9,12.29,18.43,17.91,26.71C431,403,422.18,406,409.07,413.81c-17.31,10.29-27.21,30.91-30.42,38.57C374.72,447.77,370.36,442.1,367.64,436.78Zm-1.77,200.88c-33.77-18.8-43.4-52.19-38-76.94,4.45-20.26,18.18-35,25.43-41.66a200.74,200.74,0,0,0,17.39,37.29c-7.53,14.65-6.55,30.78,2.79,43.55,7.57,10.35,17.11,13.57,25.52,13.57a34.46,34.46,0,0,0,15.22-3.57A245.44,245.44,0,0,0,438,629.56C426,637.07,394.23,653.44,365.87,637.66Zm10.35-72.55a247.8,247.8,0,0,0,31.36,38.32c-5.8,2-18,4-27.19-8.57C372.24,583.71,373.6,572.56,376.22,565.11Zm364.63-82.59c-7.25,68.88-39.1,106.06-48.69,115.81-24.67,25.09-66.79,53.64-111,58.48C534.48,661.92,481,649.59,448,626.12l-2.58-1.83,0,0c-11.91-8.37-64.51-48.18-84.94-111l.21-.15-1.3-3.12c-2.26-5.44-4.16-13.08-3.3-15.24,2.12-4,25.57-23.68,59.16-43.29,6.81,33.85,18.78,50,42.13,72.3,24.42,23.29,52.46,34.8,85.14,34.79a160.36,160.36,0,0,0,29.24-2.82c34.11-6.33,56.22-33.52,68.8-55.36a14.17,14.17,0,0,0,2.72,4.67c4.72,5.47,13.67,8.6,24.25,8.6q1.34,0,2.7-.06c9.33-.46,18.3-4.77,22.48-7.06v.66c29.14,0,42.57-17.19,48.62-30.59C741.19,478.63,741.06,480.57,740.85,482.52Zm.07-22c-.19,1.61-4.87,37.48-41.8,41.26,6.71-6.63,8.91-15,5.53-22.31-2.79-6-9.77-9-17.32-10.14a8.43,8.43,0,0,0,1.6-.55c3.34-1.62,5.78-19.05,5.78-23.72s-5.27-5.67-5.27-5.67l-15.62-6.09c-3.54-2.13-.4-5.37-.4-5.37s10-11.76,11.45-13.69,1-1.62-1-5.77-5.68-8.62-9.22-12.88-8.42-6-12.17-7.7-7.91.1-10.14,1.31c-2,1.11-5.22,4.81-6.54,6.84a133.91,133.91,0,0,0-7.24-16.29c32-3,65.66-4.38,73.39-3.95,4.86,8,25.86,44.55,29.09,84.74Z" transform="translate(-250 -333.48)"/><path d="M525.6,524.08c7.73,4.38,17.06,2.34,24.94-5.25s6.27-24.79,6-32.67-5-7.44-5-7.44l-23.92-7.15c-3.5-1.75,9.77-20.42,11.52-23.19s4.09-3.94,1.75-6.71c-1.75-2.08-15.75-21.88-30.19-25.67s-22.32,10.5-24.8,19.83,1.17,34.72,7.29,49.89S517.86,519.71,525.6,524.08Z" transform="translate(-250 -333.48)"/></svg>